PathFileType	4	(X/Y/Z)	c:/Users/goper/Files/vsCode/490R/osim_files/C06/C06_Static_01.trc
DataRate	CameraRate	NumFrames	NumMarkers	Units                	OrigDataRate	OrigDataStartFrame	OrigNumFrames
250.00	250.00	8	36	mm	250.0	1072	1714
                Frame#	Time	LPSIS			LASIS			LTH1			LTH2			LTH3			LTH4			LLFE			LMFE			LSH1			LSH2			LSH3			LSH4			LLMAL			LMMAL			LCAL			LMTP5			LTOE			LMTP1			RPSIS			RASIS			RTH1			RTH2			RTH3			RTH4			RLFE			RMFE			RSH1			RSH2			RSH3			RSH4			RLMAL			RMMAL			RCAL			RMTP1			RTOE			RMTP5		
		X1	Y1	Z1	X2	Y2	Z2	X3	Y3	Z3	X4	Y4	Z4	X5	Y5	Z5	X6	Y6	Z6	X7	Y7	Z7	X8	Y8	Z8	X9	Y9	Z9	X10	Y10	Z10	X11	Y11	Z11	X12	Y12	Z12	X13	Y13	Z13	X14	Y14	Z14	X15	Y15	Z15	X16	Y16	Z16	X17	Y17	Z17	X18	Y18	Z18	X19	Y19	Z19	X20	Y20	Z20	X21	Y21	Z21	X22	Y22	Z22	X23	Y23	Z23	X24	Y24	Z24	X25	Y25	Z25	X26	Y26	Z26	X27	Y27	Z27	X28	Y28	Z28	X29	Y29	Z29	X30	Y30	Z30	X31	Y31	Z31	X32	Y32	Z32	X33	Y33	Z33	X34	Y34	Z34	X35	Y35	Z35	X36	Y36	Z36

1072	4.28400	-389.20010	1014.53595	485.08078	-220.77322	970.24695	371.56137	-321.22806	801.62427	292.85522	-313.35184	739.86511	282.67538	-246.98361	802.11707	304.83716	-248.29369	741.84662	293.43961	-324.81323	481.52512	295.89487	-333.01862	447.77933	406.78085	-398.65018	377.74008	263.87354	-391.54950	334.61777	259.73090	-334.01913	383.06104	261.95358	-337.10364	339.18253	257.43716	-358.19699	92.88425	269.60803	-346.66519	97.98630	347.87582	-421.90454	66.55230	312.80121	-247.50587	30.70493	238.12785	-195.65646	55.59564	306.03555	-220.96095	35.89148	352.16006	-385.18213	1012.91266	557.59167	-196.24265	968.54352	612.44171	-288.69345	791.53241	708.36078	-281.46429	729.28198	710.23242	-216.44510	792.24261	686.26794	-219.87869	729.61084	691.88599	-303.71973	462.68005	688.99188	-298.62814	462.93466	579.46295	-362.93466	392.71237	717.10938	-359.81650	345.29486	723.13629	-303.05875	386.13040	709.87604	-309.08176	340.23627	715.96777	-336.66382	91.70699	697.95996	-316.99597	105.87692	619.23743	-400.42358	62.42238	656.84857	-198.00432	44.91768	622.47632	-176.44679	53.10043	661.56482	-219.48628	29.05980	728.74664
1073	4.28800	-389.20779	1014.53918	485.09238	-220.78491	970.22876	371.55872	-321.27090	801.61163	292.87244	-313.37418	739.88416	282.69785	-247.00655	802.10400	304.82193	-248.32288	741.83838	293.44574	-324.78275	481.52377	295.90085	-333.00391	447.75201	406.79013	-398.62524	377.71671	263.88895	-391.64200	334.66617	259.82370	-334.00089	383.06360	261.94565	-337.08981	339.17334	257.42551	-358.18777	92.87629	269.59796	-346.66959	97.96423	347.86801	-421.64108	66.35288	312.82266	-247.50301	30.70202	238.12701	-195.62869	55.60566	306.04187	-220.96602	35.87323	352.14386	-385.18753	1012.90918	557.60602	-196.24638	968.51733	612.45361	-288.70782	791.50562	708.38806	-281.49048	729.26178	710.25793	-216.43715	792.23877	686.27924	-219.85742	729.63104	691.87555	-303.71112	462.67865	689.00470	-298.64246	462.92908	579.47290	-362.89810	392.71033	717.13818	-359.80466	345.26874	723.09778	-303.05298	386.12039	709.89178	-309.07349	340.20984	715.99988	-336.68573	91.66846	697.93481	-316.99878	105.86369	619.23151	-400.40912	62.40414	656.84198	-198.00204	44.91344	622.48438	-176.45822	53.08082	661.55579	-219.48676	29.05619	728.73700
1074	4.29200	-389.21686	1014.53931	485.11905	-220.79517	970.22583	371.58481	-321.25317	801.59027	292.88831	-313.36292	739.85394	282.71548	-246.97974	802.09290	304.85431	-248.32231	741.81799	293.46228	-324.78918	481.49619	295.90903	-332.95499	447.73615	406.80716	-398.62512	377.73508	263.89880	-391.57956	334.57800	259.74875	-333.99661	383.05228	261.96329	-337.10995	339.16287	257.44763	-358.15976	92.86126	269.59763	-346.63962	97.96680	347.86679	-421.90234	66.50363	312.75925	-247.51025	30.67840	238.11555	-195.65515	55.72956	306.03903	-220.94521	35.87501	352.16479	-385.16629	1012.89294	557.61865	-196.24773	968.53741	612.45990	-288.69611	791.50781	708.39612	-281.45822	729.25732	710.26349	-216.43390	792.23163	686.28436	-219.86325	729.61627	691.89032	-303.71088	462.67740	689.01886	-298.61816	462.92975	579.46881	-362.89825	392.70044	717.13190	-359.78928	345.24930	723.13818	-303.05124	386.13538	709.87402	-309.04623	340.22531	715.99213	-336.65250	91.67288	697.95386	-317.21957	105.60317	619.26245	-400.43924	62.41167	656.79797	-197.98453	44.89169	622.47375	-176.45868	53.07576	661.55060	-219.48305	29.04781	728.75171
1075	4.29600	-389.21579	1014.54260	485.13025	-220.95341	970.29578	371.55746	-321.27005	801.61029	292.90518	-313.39856	739.85327	282.72836	-246.99982	802.10675	304.85999	-248.33037	741.82526	293.46631	-324.77386	481.49869	295.91443	-332.94128	447.72311	406.82138	-398.61453	377.73010	263.91397	-391.57800	334.61707	259.76126	-333.99692	383.03735	261.94788	-337.08524	339.17831	257.43054	-358.16284	92.86474	269.59375	-346.63733	97.98378	347.85342	-421.90872	66.54108	312.69958	-247.49014	30.65617	238.10167	-195.69215	55.68363	306.05490	-220.94597	35.87981	352.13132	-385.18069	1012.90137	557.63641	-196.24669	968.52386	612.45599	-288.68927	791.50421	708.38763	-281.45770	729.26929	710.27429	-216.42920	792.26086	686.29724	-219.82574	729.64233	691.88196	-303.68201	462.68231	689.01318	-298.63956	462.91248	579.45380	-362.80069	392.74493	717.07251	-359.75977	345.28528	723.11365	-303.05151	386.12347	709.88904	-309.06793	340.23083	715.98566	-336.63275	91.68077	697.93805	-316.99841	105.83093	619.21881	-400.41888	62.40422	656.77057	-197.98872	44.90794	622.46490	-176.43401	53.08443	661.53479	-219.49384	29.07029	728.73663
1076	4.30000	-389.19733	1014.52502	485.13168	-220.80736	970.21448	371.56778	-321.29703	801.57623	292.89731	-313.39133	739.84882	282.72620	-247.01416	802.07654	304.85034	-248.32707	741.82104	293.46799	-324.78845	481.48141	295.90213	-332.95499	447.71915	406.83081	-398.60742	377.71548	263.90823	-391.56021	334.55820	259.78723	-333.98453	383.03171	261.93848	-337.09073	339.14368	257.43271	-358.14642	92.84937	269.59250	-346.63495	98.00471	347.84113	-421.68912	66.44549	312.71222	-247.49152	30.64208	238.08354	-195.60474	55.55278	305.99484	-220.93092	35.88316	352.11966	-385.18552	1012.90491	557.64685	-196.26031	968.53143	612.47131	-288.70038	791.51306	708.40497	-281.45377	729.28479	710.27856	-216.43413	792.27026	686.30713	-219.84605	729.65491	691.86987	-303.69208	462.68735	689.00726	-298.61157	462.89526	579.45520	-362.90543	392.69409	717.10614	-359.75958	345.29889	723.07422	-303.02841	386.14508	709.87769	-309.04327	340.21860	715.97333	-336.64139	91.68317	697.92206	-317.24069	105.57415	619.24609	-400.43964	62.41423	656.72754	-197.98651	44.89137	622.43982	-176.44194	53.07793	661.50793	-219.46948	29.07960	728.72125
1077	4.30400	-389.17978	1014.49951	485.13159	-220.97992	970.27350	371.55896	-321.33502	801.58264	292.92096	-313.41434	739.84229	282.73209	-247.03493	802.09778	304.85025	-248.34929	741.82001	293.46600	-324.78708	481.49002	295.90726	-332.95053	447.71808	406.82913	-398.62180	377.73178	263.89548	-391.59552	334.56152	259.76410	-333.99429	383.03229	261.93329	-337.14230	339.17145	257.51840	-358.15555	92.84809	269.57571	-346.64236	98.02256	347.82700	-421.94040	66.59160	312.64026	-247.50720	30.64440	238.06732	-195.63860	55.54002	306.03629	-220.95068	35.89613	352.10434	-385.17050	1012.88177	557.64478	-196.27110	968.54932	612.46906	-288.69901	791.53265	708.40771	-281.48489	729.30103	710.27484	-216.42024	792.29346	686.29388	-219.86411	729.67480	691.88470	-303.71738	462.69391	689.00262	-298.62949	462.88943	579.46454	-362.92239	392.68338	717.10480	-359.75455	345.31921	723.09229	-303.05331	386.14920	709.85809	-309.06192	340.23712	715.97742	-336.65121	91.71088	697.91272	-317.24628	105.58081	619.23737	-400.44797	62.43755	656.70001	-198.01025	44.90017	622.41553	-176.44061	53.10898	661.48541	-219.48296	29.08694	728.70129
1078	4.30800	-389.18082	1014.51105	485.14185	-220.83176	970.23450	371.56470	-321.32278	801.58014	292.92609	-313.41318	739.83557	282.72211	-247.06505	802.09705	304.85593	-248.36211	741.81818	293.47305	-324.79578	481.49057	295.91257	-332.95557	447.76389	406.82397	-398.60367	377.70135	263.89133	-391.59293	334.56680	259.77524	-333.99313	383.03052	261.93298	-337.08627	339.14047	257.40561	-358.13150	92.84261	269.56519	-346.66364	98.04984	347.80542	-421.94202	66.63357	312.58728	-247.50026	30.65373	238.07109	-195.63589	55.58671	306.00836	-220.94701	35.92261	352.10980	-385.17416	1012.88416	557.65186	-196.28229	968.56824	612.46747	-288.72375	791.56714	708.42676	-281.46771	729.33252	710.28510	-216.41527	792.31055	686.27765	-219.87320	729.68579	691.89502	-303.71997	462.70825	688.99860	-298.63702	462.86874	579.45190	-362.93542	392.70444	717.10291	-359.80301	345.33478	723.06610	-303.04041	386.16431	709.85913	-309.06332	340.25043	715.96027	-336.66446	91.74086	697.88525	-317.23615	105.58276	619.23859	-400.45053	62.48888	656.66760	-198.01285	44.90477	622.39288	-176.13039	53.25821	661.34937	-219.46718	29.12249	728.68195
1079	4.31200	-389.15909	1014.50305	485.13638	-220.86652	970.24451	371.56750	-321.34839	801.57092	292.92859	-313.44592	739.82996	282.73068	-247.06653	802.10852	304.87613	-248.40520	741.83398	293.45773	-324.81622	481.48578	295.90665	-332.97842	447.76083	406.83249	-398.61707	377.71576	263.87961	-391.59494	334.54544	259.74286	-334.01596	383.03455	261.94620	-337.18134	339.16846	257.51474	-358.14035	92.83723	269.57321	-346.68311	98.07963	347.79938	-421.97696	66.65244	312.55750	-247.52859	30.65603	238.06848	-195.70897	55.74160	306.00195	-220.94189	35.94000	352.09933	-385.22418	1012.89709	557.66095	-196.30753	968.58575	612.47321	-288.73270	791.59686	708.42676	-281.49078	729.34338	710.27692	-216.45180	792.31952	686.27606	-219.86925	729.69348	691.89886	-303.74786	462.72565	688.99854	-298.63840	462.87482	579.44513	-362.93839	392.71237	717.09845	-359.80249	345.38217	723.08746	-303.06146	386.18295	709.85699	-309.07150	340.25937	715.96429	-336.67279	91.76138	697.88013	-317.23465	105.59832	619.22382	-400.45691	62.49253	656.66040	-198.03287	44.92426	622.38629	-176.15167	53.28646	661.34863	-219.49893	29.12755	728.67230
